<svg width="150" height="75" viewBox="0 0 150 75" fill="none" xmlns="http://www.w3.org/2000/svg">
<path d="M37.5 75C58.2107 75 75 58.2107 75 37.5C75 16.7893 58.2107 0 37.5 0C16.7893 0 0 16.7893 0 37.5C0 58.2107 16.7893 75 37.5 75Z" fill="#C9D8F0"/>
<path d="M75 75C95.7107 75 112.5 58.2107 112.5 37.5C112.5 16.7893 95.7107 0 75 0C54.2893 0 37.5 16.7893 37.5 37.5C37.5 58.2107 54.2893 75 75 75Z" fill="#5F94E5"/>
<path d="M112.5 75C133.211 75 150 58.2107 150 37.5C150 16.7893 133.211 0 112.5 0C91.7893 0 75 16.7893 75 37.5C75 58.2107 91.7893 75 112.5 75Z" fill="#1765DC"/>
</svg>
