<svg width="180" height="28" viewBox="0 0 180 28" fill="none" xmlns="http://www.w3.org/2000/svg">
<path d="M14.0094 27.9922C21.7466 27.9922 28.0188 21.7242 28.0188 13.9922C28.0188 6.2602 21.7466 -0.0078125 14.0094 -0.0078125C6.27222 -0.0078125 0 6.2602 0 13.9922C0 21.7242 6.27222 27.9922 14.0094 27.9922Z" fill="#C9D8F0"/>
<path d="M28.0211 27.9922C35.7583 27.9922 42.0305 21.7242 42.0305 13.9922C42.0305 6.2602 35.7583 -0.0078125 28.0211 -0.0078125C20.2839 -0.0078125 14.0117 6.2602 14.0117 13.9922C14.0117 21.7242 20.2839 27.9922 28.0211 27.9922Z" fill="#5F94E5"/>
<path d="M42.0289 27.9922C49.7661 27.9922 56.0383 21.7242 56.0383 13.9922C56.0383 6.2602 49.7661 -0.0078125 42.0289 -0.0078125C34.2918 -0.0078125 28.0195 6.2602 28.0195 13.9922C28.0195 21.7242 34.2918 27.9922 42.0289 27.9922Z" fill="#1765DC"/>
<path d="M87.5137 23H82.6602L81.2793 12.2539L76.7676 23H74.8398L70.5332 12.2539L68.9473 23H64.1211L67.293 4.33789H72.0781L75.8652 14.291L79.8711 4.33789H84.6973L87.5137 23ZM110.428 13.7305C110.428 16.2643 109.585 18.4883 107.898 20.4023C105.975 22.5807 103.373 23.6699 100.092 23.6699C96.8197 23.6699 94.222 22.5807 92.2988 20.4023C90.6126 18.4883 89.7695 16.2643 89.7695 13.7305C89.7695 12.5729 89.9974 11.388 90.4531 10.1758C90.9089 8.95443 91.5195 7.91081 92.2852 7.04492C94.2083 4.86654 96.8105 3.77734 100.092 3.77734C103.373 3.77734 105.975 4.86654 107.898 7.04492C109.585 8.95898 110.428 11.1875 110.428 13.7305ZM105.383 13.7305C105.383 12.418 104.964 11.2832 104.125 10.3262C103.049 9.10482 101.705 8.49414 100.092 8.49414C98.9798 8.49414 97.9727 8.80859 97.0703 9.4375C96.168 10.0573 95.5254 10.8867 95.1426 11.9258C94.9238 12.5182 94.8145 13.1198 94.8145 13.7305C94.8145 14.9883 95.2337 16.1139 96.0723 17.1074C97.1113 18.3379 98.4512 18.9531 100.092 18.9531C101.732 18.9531 103.077 18.3424 104.125 17.1211C104.964 16.1458 105.383 15.0156 105.383 13.7305ZM124.578 8.39844H120.559V23H115.705V8.39844H111.754V4.33789H124.578V8.39844ZM131.578 23H126.725V4.33789H131.578V23ZM155.326 13.7305C155.326 16.2643 154.483 18.4883 152.797 20.4023C150.874 22.5807 148.271 23.6699 144.99 23.6699C141.718 23.6699 139.12 22.5807 137.197 20.4023C135.511 18.4883 134.668 16.2643 134.668 13.7305C134.668 12.5729 134.896 11.388 135.352 10.1758C135.807 8.95443 136.418 7.91081 137.184 7.04492C139.107 4.86654 141.709 3.77734 144.99 3.77734C148.271 3.77734 150.874 4.86654 152.797 7.04492C154.483 8.95898 155.326 11.1875 155.326 13.7305ZM150.281 13.7305C150.281 12.418 149.862 11.2832 149.023 10.3262C147.948 9.10482 146.604 8.49414 144.99 8.49414C143.878 8.49414 142.871 8.80859 141.969 9.4375C141.066 10.0573 140.424 10.8867 140.041 11.9258C139.822 12.5182 139.713 13.1198 139.713 13.7305C139.713 14.9883 140.132 16.1139 140.971 17.1074C142.01 18.3379 143.35 18.9531 144.99 18.9531C146.631 18.9531 147.975 18.3424 149.023 17.1211C149.862 16.1458 150.281 15.0156 150.281 13.7305ZM177.051 23H172.197L163.27 11.5703V23H158.416V4.33789H163.27L172.197 15.7539V4.33789H177.051V23Z" fill="black"/>
</svg>
